<?xml version="1.0" encoding="UTF-8" standalone="no"?>
<svg
   viewBox="0 0 384 512"
   version="1.1"
   id="svg1"
   sodipodi:docname="location-pin-clear.svg"
   inkscape:version="1.3.2 (091e20e, 2023-11-25)"
   xmlns:inkscape="http://www.inkscape.org/namespaces/inkscape"
   xmlns:sodipodi="http://sodipodi.sourceforge.net/DTD/sodipodi-0.dtd"
   xmlns="http://www.w3.org/2000/svg"
   xmlns:svg="http://www.w3.org/2000/svg">
  <defs
     id="defs1" />
  <sodipodi:namedview
     id="namedview1"
     pagecolor="#ffffff"
     bordercolor="#000000"
     borderopacity="0.25"
     inkscape:showpageshadow="2"
     inkscape:pageopacity="0.0"
     inkscape:pagecheckerboard="0"
     inkscape:deskcolor="#d1d1d1"
     inkscape:zoom="1.1597893"
     inkscape:cx="187.10296"
     inkscape:cy="197.01855"
     inkscape:window-width="1800"
     inkscape:window-height="1126"
     inkscape:window-x="0"
     inkscape:window-y="43"
     inkscape:window-maximized="0"
     inkscape:current-layer="svg1" />
  <!--!Font Awesome Free 6.6.0 by @fontawesome - https://fontawesome.com License - https://fontawesome.com/license/free Copyright 2024 Fonticons, Inc.-->
  <path
     id="path1"
     d="M 192 0 C 86.000106 0 0 86.000106 0 192 C 2.8421681e-14 279.39991 117.00083 434.99928 168.30078 499.19922 C 180.60077 514.4992 203.39923 514.4992 215.69922 499.19922 C 266.99917 434.99928 384 279.39991 384 192 C 384 86.000106 297.99989 0 192 0 z M 129.77539 112.51758 C 135.90954 112.51758 142.04384 114.86806 146.74609 119.57031 L 192 164.82617 L 237.25391 119.57031 C 246.65841 110.1658 261.7908 110.1658 271.19531 119.57031 C 280.59982 128.97482 280.59982 144.10721 271.19531 153.51172 L 225.94141 198.76562 L 271.19531 244.02148 C 280.59982 253.42599 280.59982 268.55838 271.19531 277.96289 C 261.7908 287.3674 246.65842 287.3674 237.25391 277.96289 L 192 232.70703 L 146.74609 277.96289 C 137.34158 287.3674 122.2092 287.3674 112.80469 277.96289 C 103.40018 268.55838 103.40018 253.42599 112.80469 244.02148 L 158.05859 198.76562 L 112.80469 153.51172 C 103.40018 144.10721 103.40018 128.97482 112.80469 119.57031 C 117.50694 114.86806 123.64124 112.51758 129.77539 112.51758 z " />
</svg>
