<?xml version="1.0" encoding="UTF-8" standalone="no"?>
<svg
   width="120"
   height="120"
   viewBox="0 0 120 120"
   fill="none"
   version="1.1"
   id="svg7"
   inkscape:version="1.3.2 (091e20e, 2023-11-25)"
   sodipodi:docname="logo120-120.svg"
   xmlns:inkscape="http://www.inkscape.org/namespaces/inkscape"
   xmlns:sodipodi="http://sodipodi.sourceforge.net/DTD/sodipodi-0.dtd"
   xmlns="http://www.w3.org/2000/svg"
   xmlns:svg="http://www.w3.org/2000/svg">
  <defs
     id="defs1" />
  <sodipodi:namedview
     inkscape:zoom="2.673019"
     inkscape:cx="74.260601"
     inkscape:cy="41.900188"
     inkscape:window-width="2560"
     inkscape:window-height="1329"
     inkscape:window-x="2099"
     inkscape:window-y="206"
     inkscape:window-maximized="0"
     inkscape:current-layer="svg7"
     id="namedview1"
     pagecolor="#ffffff"
     bordercolor="#000000"
     borderopacity="0.25"
     inkscape:showpageshadow="2"
     inkscape:pageopacity="0.0"
     inkscape:pagecheckerboard="0"
     inkscape:deskcolor="#d1d1d1" />
  <path
     d="m 23.84941,21.2438 v 7.9475 l 9.05279,-4.9611 v -7.9596 c 0.0053,-0.37 0.0989,-0.7333 0.273,-1.0599 0.1741,-0.3266 0.4237,-0.607 0.7282,-0.818 l 7.0201,-3.8707 c 0.5583,-0.3029 1.0073,0.0424 1.0073,0.7753 v 7.9415 l 9.0346,-4.9793 V 6.31802 C 50.9706,5.94809 51.0642,5.58474 51.2383,5.25815 51.4125,4.93156 51.6621,4.65114 51.9665,4.44018 L 60,0 V 1.34478 26.4957 L 14.8512,51.3741 v -25.151 c 0.0044,-0.3707 0.0983,-0.735 0.273628,-1.0618 0.175325,-0.3269 0.426955,-0.6068 0.733592,-0.816 l 7.00804,-3.8708 c 0.55215,-0.3029 0.98295,0.0424 0.98295,0.7693 z"
     fill="#ff5300"
     id="path1" />
  <path
     d="m 96.1263,29.1913 v -7.9475 c 0,-0.5274 0.2364,-0.8539 0.5771,-0.8777 L 86.4065,14.6586 c 0.1631,0.1616 0.3018,0.3469 0.4109,0.5505 0.1753,0.3268 0.2694,0.6908 0.2743,1.0615 v 7.9596 z M 78.754,10.4169 c -0.4053,-0.0491 -0.6969,0.2898 -0.6969,0.8804 v 7.9415 L 69.0286,14.2595 V 6.31803 C 69.0233,5.9481 68.9297,5.58475 68.7556,5.25816 68.6119,4.98855 68.4167,4.7504 68.1816,4.55682 Z"
     fill="#ff5300"
     id="path2" />
  <path
     d="M 60,26.4957 105.1488,51.3741 98.8385,58.5523 60,37.0419 Z"
     fill="#ff5300"
     id="path3" />
  <path
     d="m 27.308,88.3251 c 3.776804,8.431738 6.696218,12.97506 14.2405,20.3589 C 49.092782,116.06784 60,119.833 60,119.833 V 37.1116 L 21.15544,57.789 c 0,11.0974 2.375755,22.104362 6.15256,30.5361 z"
     fill="#ff5300"
     id="path4" />
  <path
     d="m 84.6193,85.7385 0.2063,-8.735 c 0.091,-3.9858 -2.2632,-8.3594 -5.2302,-9.7223 -2.9671,-1.363 -5.4608,0.7814 -5.564,4.7673 l -0.2002,8.7289 z"
     fill="#ff5300"
     id="path6" />
  <path
     d="M 59.9878,26.4957 105.1366,51.374 98.8264,58.5522 59.9878,37.0419 Z"
     fill="#ff5300"
     id="path7" />
</svg>
