<?xml version="1.0" encoding="iso-8859-1"?>
<!-- Uploaded to: SVG Repo, www.svgrepo.com, Generator: SVG Repo Mixer Tools -->
<svg fill="#000000" height="800px" width="800px" version="1.1" id="Capa_1" xmlns="http://www.w3.org/2000/svg" xmlns:xlink="http://www.w3.org/1999/xlink" 
	 viewBox="0 0 612 612" xml:space="preserve">
<g>
	<g id="Shutter_-Closed-">
		<path d="M306,0C137.001,0,0,137.001,0,306s137.001,306,306,306s306-137.001,306-306S474.999,0,306,0z M504.711,504.711
			C451.633,557.789,381.064,587.02,306,587.02s-145.634-29.231-198.711-82.309S24.98,381.064,24.98,306
			s29.231-145.634,82.309-198.711S230.936,24.98,306,24.98s145.633,29.231,198.711,82.309S587.02,230.936,587.02,306
			S557.789,451.633,504.711,504.711z"/>
		<path d="M339.751,58.495c-47.044-6.415-94.944,0.711-138.083,20.541c21.902,67.406,43.803,134.812,65.705,202.219
			C291.499,207.001,315.625,132.748,339.751,58.495z"/>
		<path d="M478.785,125.602C444.496,92.76,401.557,70.37,355,61.058c-21.902,67.406-43.803,134.812-65.705,202.219
			C352.458,217.385,415.622,171.494,478.785,125.602z"/>
		<path d="M551.822,261.616c-8.437-46.724-30.014-90.076-62.205-124.978c-57.339,41.66-114.679,83.318-172.017,124.978
			C395.672,261.616,473.747,261.616,551.822,261.616z"/>
		<path d="M554.096,276.91c-70.875,0-141.75,0-212.625,0c63.163,45.891,126.327,91.781,189.49,137.673
			C551.601,371.822,559.625,324.066,554.096,276.91z"/>
		<path d="M424.175,526.074c41.831-22.462,76.394-56.38,99.639-97.781c-57.339-41.66-114.679-83.318-172.017-124.978
			C375.922,377.568,400.048,451.821,424.175,526.074z"/>
		<path d="M272.249,553.505c47.045,6.415,94.944-0.709,138.083-20.541c-21.902-67.406-43.803-134.812-65.705-202.219
			C320.501,404.999,296.375,479.252,272.249,553.505z"/>
		<path d="M133.215,486.398C167.504,519.24,210.443,541.63,257,550.942c21.902-67.406,43.803-134.812,65.705-202.219
			C259.542,394.615,196.378,440.506,133.215,486.398z"/>
		<path d="M60.178,350.384c8.437,46.724,30.014,90.076,62.205,124.978c57.339-41.66,114.679-83.318,172.017-124.978
			C216.328,350.384,138.253,350.384,60.178,350.384z"/>
		<path d="M81.039,197.417c-20.639,42.76-28.664,90.516-23.135,137.673c70.875,0,141.75,0,212.625,0
			C207.366,289.199,144.202,243.309,81.039,197.417z"/>
		<path d="M187.825,85.926c-41.831,22.462-76.394,56.38-99.639,97.781c57.339,41.66,114.679,83.318,172.017,124.978
			C236.078,234.432,211.952,160.179,187.825,85.926z"/>
	</g>
</g>
</svg>