<?xml version="1.0" encoding="UTF-8" standalone="no"?>
<svg
   viewBox="0 0 585 538"
   version="1.1"
   id="svg1"
   sodipodi:docname="image-regular-clear.svg"
   inkscape:version="1.4 (e7c3feb1, 2024-10-09)"
   width="585"
   height="538"
   xmlns:inkscape="http://www.inkscape.org/namespaces/inkscape"
   xmlns:sodipodi="http://sodipodi.sourceforge.net/DTD/sodipodi-0.dtd"
   xmlns="http://www.w3.org/2000/svg"
   xmlns:svg="http://www.w3.org/2000/svg">
  <defs
     id="defs1" />
  <sodipodi:namedview
     id="namedview1"
     pagecolor="#ffffff"
     bordercolor="#000000"
     borderopacity="0.25"
     inkscape:showpageshadow="2"
     inkscape:pageopacity="0.0"
     inkscape:pagecheckerboard="0"
     inkscape:deskcolor="#d1d1d1"
     inkscape:zoom="1.527881"
     inkscape:rotation="1"
     inkscape:cx="381.6558"
     inkscape:cy="488.87107"
     inkscape:window-width="1800"
     inkscape:window-height="1041"
     inkscape:window-x="480"
     inkscape:window-y="1484"
     inkscape:window-maximized="0"
     inkscape:current-layer="svg1" />
  <!--!Font Awesome Free 6.5.1 by @fontawesome - https://fontawesome.com License - https://fontawesome.com/license/free Copyright 2024 Fonticons, Inc.-->
  <path
     id="path1"
     d="M 64 0 C 28.7 0 0 28.7 0 64 L 0 384 C 0 419.3 28.7 448 64 448 L 297.51562 448 C 289.4835 429.62206 285 409.33912 285 388 C 285 330.51623 317.35052 280.60838 364.82422 255.42578 L 323 201.30078 C 318.5 195.40078 311.4 192 304 192 C 296.6 192 289.6 195.40078 285 201.30078 L 202 308.69922 L 171.5 266 C 167 259.7 159.8 256 152 256 C 144.2 256 137 259.69961 132.5 266.09961 L 52.5 378.09961 L 48 384.30078 L 48 384 L 48 64 C 48 55.2 55.2 48 64 48 L 448 48 C 456.8 48 464 55.2 464 64 L 464 240.82812 C 481.24156 244.20653 497.4236 250.53008 512 259.26758 L 512 64 C 512 28.7 483.3 0 448 0 L 64 0 z M 144 96 A 48 48 0 0 0 144 192 A 48 48 0 0 0 144 96 z " />
  <path
     style="color:#000000;font-style:normal;font-variant:normal;font-weight:normal;font-stretch:normal;font-size:medium;line-height:normal;font-family:sans-serif;font-variant-ligatures:normal;font-variant-position:normal;font-variant-caps:normal;font-variant-numeric:normal;font-variant-alternates:normal;font-variant-east-asian:normal;font-feature-settings:normal;font-variation-settings:normal;text-indent:0;text-align:start;text-decoration-line:none;text-decoration-style:solid;text-decoration-color:#000000;letter-spacing:normal;word-spacing:normal;text-transform:none;writing-mode:lr-tb;direction:ltr;text-orientation:mixed;dominant-baseline:auto;baseline-shift:baseline;text-anchor:start;white-space:normal;shape-padding:0;shape-margin:0;inline-size:0;clip-rule:nonzero;display:inline;overflow:visible;visibility:visible;isolation:auto;mix-blend-mode:normal;color-interpolation:sRGB;color-interpolation-filters:linearRGB;solid-color:#000000;solid-opacity:1;vector-effect:none;fill:#000000;fill-opacity:1;fill-rule:nonzero;stroke:none;stroke-width:1.39949;stroke-linecap:butt;stroke-linejoin:miter;stroke-miterlimit:4;stroke-dasharray:none;stroke-dashoffset:0;stroke-opacity:1;-inkscape-stroke:none;color-rendering:auto;image-rendering:auto;shape-rendering:auto;text-rendering:auto;enable-background:accumulate;stop-color:#000000;stop-opacity:1"
     d="m 368.60256,321.60249 c -7.70813,7.70812 -7.70813,20.17237 0,27.79846 l 38.54051,38.5405 -38.54051,38.5405 c -7.70813,7.70812 -7.70813,20.17224 0,27.79832 7.70798,7.62608 20.17223,7.70813 27.79832,0 l 38.5405,-38.54051 38.5405,38.54051 c 7.70812,7.70813 20.17224,7.70813 27.79832,0 7.62622,-7.70812 7.70813,-20.17223 0,-27.79832 l -38.54051,-38.5405 38.54051,-38.5405 c 7.70813,-7.70812 7.70813,-20.17238 0,-27.79846 -7.70812,-7.62608 -20.17223,-7.70813 -27.79832,0 l -38.5405,38.54051 -38.5405,-38.54051 c -7.70812,-7.70813 -20.17224,-7.70813 -27.79832,0 z"
     id="path6" />
</svg>
